<?xml version="1.0" encoding="UTF-8" standalone="no"?>
<!DOCTYPE svg PUBLIC "-//W3C//DTD SVG 1.1//EN"
 "http://www.w3.org/Graphics/SVG/1.1/DTD/svg11.dtd">
<!-- Generated by graphviz version 2.47.0 (20210316.0004)
 -->
<!-- Title: top Pages: 1 -->
<svg width="392pt" height="268pt"
 viewBox="0.00 0.00 392.00 268.00" xmlns="http://www.w3.org/2000/svg" xmlns:xlink="http://www.w3.org/1999/xlink">
<g id="graph0" class="graph" transform="scale(1 1) rotate(0) translate(4 264)">
<title>top</title>
<polygon fill="white" stroke="transparent" points="-4,4 -4,-264 388,-264 388,4 -4,4"/>
<g id="clust1" class="cluster">
<title>cluster_top</title>
<polygon fill="none" stroke="black" points="8,-8 8,-252 376,-252 376,-8 8,-8"/>
<text text-anchor="middle" x="192" y="-236.8" font-family="Times New Roman,serif" font-size="14.00">top|Widget</text>
</g>
<!-- top_i -->
<g id="node1" class="node">
<title>top_i</title>
<polygon fill="none" stroke="black" points="16,-48.5 16,-163.5 70,-163.5 70,-48.5 16,-48.5"/>
<text text-anchor="middle" x="43" y="-148.3" font-family="Times New Roman,serif" font-size="14.00">IN</text>
<polyline fill="none" stroke="black" points="16,-140.5 70,-140.5 "/>
<text text-anchor="middle" x="43" y="-125.3" font-family="Times New Roman,serif" font-size="14.00">A</text>
<polyline fill="none" stroke="black" points="16,-117.5 70,-117.5 "/>
<text text-anchor="middle" x="43" y="-102.3" font-family="Times New Roman,serif" font-size="14.00">B</text>
<polyline fill="none" stroke="black" points="16,-94.5 70,-94.5 "/>
<text text-anchor="middle" x="43" y="-79.3" font-family="Times New Roman,serif" font-size="14.00">C</text>
<polyline fill="none" stroke="black" points="16,-71.5 70,-71.5 "/>
<text text-anchor="middle" x="43" y="-56.3" font-family="Times New Roman,serif" font-size="14.00">D</text>
</g>
<!-- instance1 -->
<g id="node2" class="node">
<title>instance1</title>
<polygon fill="none" stroke="black" points="106,-128 106,-220 174,-220 174,-128 106,-128"/>
<text text-anchor="middle" x="140" y="-204.8" font-family="Times New Roman,serif" font-size="14.00">instance1</text>
<polyline fill="none" stroke="black" points="106,-197 174,-197 "/>
<text text-anchor="middle" x="140" y="-181.8" font-family="Times New Roman,serif" font-size="14.00">AND2</text>
<polyline fill="none" stroke="black" points="106,-174 174,-174 "/>
<text text-anchor="middle" x="122.5" y="-158.8" font-family="Times New Roman,serif" font-size="14.00">A</text>
<polyline fill="none" stroke="black" points="106,-151 139,-151 "/>
<text text-anchor="middle" x="122.5" y="-135.8" font-family="Times New Roman,serif" font-size="14.00">B</text>
<polyline fill="none" stroke="black" points="139,-128 139,-174 "/>
<text text-anchor="middle" x="156.5" y="-147.3" font-family="Times New Roman,serif" font-size="14.00">Q</text>
</g>
<!-- top_i&#45;&gt;instance1 -->
<g id="edge1" class="edge">
<title>top_i:A&#45;&gt;instance1:A</title>
<path fill="none" stroke="black" d="M70,-129C87.47,-129 86.08,-150.37 96.18,-158.72"/>
<polygon fill="black" stroke="black" points="95.41,-162.15 106,-162 97.63,-155.51 95.41,-162.15"/>
</g>
<!-- top_i&#45;&gt;instance1 -->
<g id="edge2" class="edge">
<title>top_i:B&#45;&gt;instance1:B</title>
<path fill="none" stroke="black" d="M70,-106C87.47,-106 86.08,-127.37 96.18,-135.72"/>
<polygon fill="black" stroke="black" points="95.41,-139.15 106,-139 97.63,-132.51 95.41,-139.15"/>
</g>
<!-- instance2 -->
<g id="node3" class="node">
<title>instance2</title>
<polygon fill="none" stroke="black" points="106,-17 106,-109 174,-109 174,-17 106,-17"/>
<text text-anchor="middle" x="140" y="-93.8" font-family="Times New Roman,serif" font-size="14.00">instance2</text>
<polyline fill="none" stroke="black" points="106,-86 174,-86 "/>
<text text-anchor="middle" x="140" y="-70.8" font-family="Times New Roman,serif" font-size="14.00">AND2</text>
<polyline fill="none" stroke="black" points="106,-63 174,-63 "/>
<text text-anchor="middle" x="122.5" y="-47.8" font-family="Times New Roman,serif" font-size="14.00">A</text>
<polyline fill="none" stroke="black" points="106,-40 139,-40 "/>
<text text-anchor="middle" x="122.5" y="-24.8" font-family="Times New Roman,serif" font-size="14.00">B</text>
<polyline fill="none" stroke="black" points="139,-17 139,-63 "/>
<text text-anchor="middle" x="156.5" y="-36.3" font-family="Times New Roman,serif" font-size="14.00">Q</text>
</g>
<!-- top_i&#45;&gt;instance2 -->
<g id="edge3" class="edge">
<title>top_i:C&#45;&gt;instance2:A</title>
<path fill="none" stroke="black" d="M70,-83C87.23,-83 86.18,-62.28 96.27,-54.19"/>
<polygon fill="black" stroke="black" points="97.58,-57.44 106,-51 95.41,-50.78 97.58,-57.44"/>
</g>
<!-- top_i&#45;&gt;instance2 -->
<g id="edge4" class="edge">
<title>top_i:D&#45;&gt;instance2:B</title>
<path fill="none" stroke="black" d="M70,-60C87.23,-60 86.18,-39.28 96.27,-31.19"/>
<polygon fill="black" stroke="black" points="97.58,-34.44 106,-28 95.41,-27.78 97.58,-34.44"/>
</g>
<!-- instance3 -->
<g id="node4" class="node">
<title>instance3</title>
<polygon fill="none" stroke="black" points="210,-73 210,-165 278,-165 278,-73 210,-73"/>
<text text-anchor="middle" x="244" y="-149.8" font-family="Times New Roman,serif" font-size="14.00">instance3</text>
<polyline fill="none" stroke="black" points="210,-142 278,-142 "/>
<text text-anchor="middle" x="244" y="-126.8" font-family="Times New Roman,serif" font-size="14.00">OR2</text>
<polyline fill="none" stroke="black" points="210,-119 278,-119 "/>
<text text-anchor="middle" x="226.5" y="-103.8" font-family="Times New Roman,serif" font-size="14.00">A</text>
<polyline fill="none" stroke="black" points="210,-96 243,-96 "/>
<text text-anchor="middle" x="226.5" y="-80.8" font-family="Times New Roman,serif" font-size="14.00">B</text>
<polyline fill="none" stroke="black" points="243,-73 243,-119 "/>
<text text-anchor="middle" x="260.5" y="-92.3" font-family="Times New Roman,serif" font-size="14.00">Q</text>
</g>
<!-- instance1&#45;&gt;instance3 -->
<g id="edge5" class="edge">
<title>instance1:Q&#45;&gt;instance3:A</title>
<path fill="none" stroke="black" d="M174,-151C195.12,-151 188.43,-120.25 200.43,-110.16"/>
<polygon fill="black" stroke="black" points="201.6,-113.46 210,-107 199.41,-106.82 201.6,-113.46"/>
</g>
<!-- instance2&#45;&gt;instance3 -->
<g id="edge6" class="edge">
<title>instance2:Q&#45;&gt;instance3:B</title>
<path fill="none" stroke="black" d="M174,-40C195.12,-40 188.43,-70.75 200.43,-80.84"/>
<polygon fill="black" stroke="black" points="199.41,-84.18 210,-84 201.6,-77.54 199.41,-84.18"/>
</g>
<!-- top_o -->
<g id="node5" class="node">
<title>top_o</title>
<polygon fill="none" stroke="black" points="314,-85 314,-131 368,-131 368,-85 314,-85"/>
<text text-anchor="middle" x="341" y="-115.8" font-family="Times New Roman,serif" font-size="14.00">OUT</text>
<polyline fill="none" stroke="black" points="314,-108 368,-108 "/>
<text text-anchor="middle" x="341" y="-92.8" font-family="Times New Roman,serif" font-size="14.00">O</text>
</g>
<!-- instance3&#45;&gt;top_o -->
<g id="edge7" class="edge">
<title>instance3:Q&#45;&gt;top_o:O</title>
<path fill="none" stroke="black" d="M278,-96C290,-96 295.25,-96 303.88,-96"/>
<polygon fill="black" stroke="black" points="304,-99.5 314,-96 304,-92.5 304,-99.5"/>
</g>
</g>
</svg>
